<svg xmlns="http://www.w3.org/2000/svg" width="81" height="80" viewBox="0 0 81 80" fill="none">
  <g clip-path="url(#clip0_1_315)">
    <g filter="url(#filter0_d_1_315)">
      <path d="M19.1721 40.3805C19.1721 28.6595 28.7801 19.1577 40.5011 19.1577C52.2221 19.1577 61.8301 28.6595 61.8301 40.3805C61.8301 52.1015 52.2221 61.6032 40.5011 61.6032C28.7801 61.6032 19.1721 52.1015 19.1721 40.3805Z" fill="white" fill-opacity="0.2"/>
    </g>
    <path fill-rule="evenodd" clip-rule="evenodd" d="M40.0459 60.7631C51.3719 60.7631 60.7057 51.6206 60.8932 40.3427C61.0813 29.0647 52.0519 19.922 40.7259 19.922C29.4 19.922 20.0663 29.0647 19.8784 40.3427C19.6907 51.6206 28.7199 60.7631 40.0459 60.7631ZM40.0332 61.5278C51.7831 61.5278 61.466 52.043 61.6611 40.3427C61.8557 28.6425 52.4884 19.1577 40.7386 19.1577C28.9888 19.1577 19.3057 28.6425 19.1109 40.3427C18.9161 52.043 28.2833 61.5278 40.0332 61.5278Z" fill="white" stroke="white" stroke-width="3"/>
    <g opacity="0.7">
      <mask id="path-4-inside-1_1_315" fill="white">
        <path fill-rule="evenodd" clip-rule="evenodd" d="M39.7655 78.7595C61.2287 78.7595 78.9168 61.4334 79.2729 40.061C79.6287 18.6884 62.5175 1.36248 41.0541 1.36248C19.5907 1.36248 1.90268 18.6884 1.54682 40.061C1.19096 61.4334 18.302 78.7595 39.7655 78.7595ZM39.7527 79.5237C61.6399 79.5237 79.6775 61.8558 80.0403 40.061C80.4031 18.2662 62.9544 0.598145 41.0669 0.598145C19.1795 0.598145 1.14213 18.2662 0.779241 40.061C0.41635 61.8558 17.8654 79.5237 39.7527 79.5237Z"/>
      </mask>
      <path fill-rule="evenodd" clip-rule="evenodd" d="M39.7655 78.7595C61.2287 78.7595 78.9168 61.4334 79.2729 40.061C79.6287 18.6884 62.5175 1.36248 41.0541 1.36248C19.5907 1.36248 1.90268 18.6884 1.54682 40.061C1.19096 61.4334 18.302 78.7595 39.7655 78.7595ZM39.7527 79.5237C61.6399 79.5237 79.6775 61.8558 80.0403 40.061C80.4031 18.2662 62.9544 0.598145 41.0669 0.598145C19.1795 0.598145 1.14213 18.2662 0.779241 40.061C0.41635 61.8558 17.8654 79.5237 39.7527 79.5237Z" fill="white"/>
      <path d="M79.2729 40.061L80.2728 40.0776V40.0776L79.2729 40.061ZM1.54682 40.061L2.54668 40.0776L1.54682 40.061ZM80.0403 40.061L79.0404 40.0443L80.0403 40.061ZM0.779241 40.061L1.7791 40.0776L0.779241 40.061ZM39.7655 79.7595C61.7707 79.7595 79.9075 61.9996 80.2728 40.0776L78.273 40.0443C77.9261 60.8673 60.6867 77.7595 39.7655 77.7595V79.7595ZM80.2728 40.0776C80.6379 18.1423 63.0723 0.362477 41.0541 0.362477V2.36248C61.9627 2.36248 78.6194 19.2344 78.273 40.0443L80.2728 40.0776ZM41.0541 0.362477C19.0487 0.362477 0.911968 18.1222 0.546959 40.0443L2.54668 40.0776C2.89339 19.2545 20.1327 2.36248 41.0541 2.36248V0.362477ZM0.546959 40.0443C0.181725 61.9795 17.7472 79.7595 39.7655 79.7595V77.7595C18.8569 77.7595 2.20019 60.8874 2.54668 40.0776L0.546959 40.0443ZM39.7527 80.5237C62.182 80.5237 80.6682 62.4219 81.0402 40.0776L79.0404 40.0443C78.6868 61.2896 61.0979 78.5237 39.7527 78.5237V80.5237ZM81.0402 40.0776C81.4123 17.7202 63.5092 -0.401855 41.0669 -0.401855V1.59814C62.3996 1.59814 79.3939 18.8123 79.0404 40.0443L81.0402 40.0776ZM41.0669 -0.401855C18.6375 -0.401855 0.151417 17.7001 -0.220621 40.0443L1.7791 40.0776C2.13284 18.8324 19.7215 1.59814 41.0669 1.59814V-0.401855ZM-0.220621 40.0443C-0.592881 62.4018 17.3105 80.5237 39.7527 80.5237V78.5237C18.4202 78.5237 1.42558 61.3097 1.7791 40.0776L-0.220621 40.0443Z" fill="white" mask="url(#path-4-inside-1_1_315)"/>
    </g>
    <path d="M37.4155 33.0903L46.6239 40.0612L37.1833 47.0322L37.4155 33.0903Z" fill="white"/>
  </g>
  <defs>
    <filter id="filter0_d_1_315" x="-12.8279" y="7.15771" width="106.658" height="106.445" filterUnits="userSpaceOnUse" color-interpolation-filters="sRGB">
      <feFlood flood-opacity="0" result="BackgroundImageFix"/>
      <feColorMatrix in="SourceAlpha" type="matrix" values="0 0 0 0 0 0 0 0 0 0 0 0 0 0 0 0 0 0 127 0" result="hardAlpha"/>
      <feMorphology radius="3" operator="dilate" in="SourceAlpha" result="effect1_dropShadow_1_315"/>
      <feOffset dy="20"/>
      <feGaussianBlur stdDeviation="14.5"/>
      <feComposite in2="hardAlpha" operator="out"/>
      <feColorMatrix type="matrix" values="0 0 0 0 0.828507 0 0 0 0 0.845284 0 0 0 0 0.929167 0 0 0 0.49 0"/>
      <feBlend mode="normal" in2="BackgroundImageFix" result="effect1_dropShadow_1_315"/>
      <feBlend mode="normal" in="SourceGraphic" in2="effect1_dropShadow_1_315" result="shape"/>
    </filter>
    <clipPath id="clip0_1_315">
      <rect x="0.12207" y="0.598145" width="80.756" height="79.1879" rx="39.594" fill="white"/>
    </clipPath>
  </defs>
</svg>